<?xml version="1.0" encoding="UTF-8"?>
<!-- Created with Inkscape (http://www.inkscape.org/) -->
<svg width="37.991mm" height="13.793mm" version="1.1" viewBox="0 0 37.991 13.793" xmlns="http://www.w3.org/2000/svg">
 <defs>
  <clipPath id="clipPath5">
   <path d="m43.654 279.48h169.72v85.039h-169.72z"/>
  </clipPath>
  <clipPath id="clipPath8">
   <path d="m43.654 279.48h169.72v85.039h-169.72z"/>
  </clipPath>
  <clipPath id="clipPath11">
   <path d="m43.654 279.48h169.72v85.039h-169.72z"/>
  </clipPath>
 </defs>
 <g transform="translate(-72.76 -53.181)">
  <g transform="matrix(.35278 0 0 -.35278 46.42 175.57)" fill="#000000">
   <path d="m132.5 325.07c0.128 5.496-3.11 10.478-8.871 11.141-2.739 0.24-5.63-0.752-7.792-2.499 3e-3 0.285 0.01 0.57 0.026 0.855 0.071 3.082 0.12 9.278 0.098 12.363h-6.02v-39.099h6.02v14.373 2.64c0.06 1.735 0.386 3.565 1.711 4.568 1.559 1.183 4.39 1.376 6.177 0.584 1.524-0.722 2.091-1.805 2.477-3.481 0.105-0.647 0.174-2.274 0.174-4.321 0-4.692-0.078-13.089-0.02-14.363h6.02c-0.014 1.199 0.019 16.433 0 17.239" clip-path="url(#clipPath5)"/>
   <path d="m176.33 313.51c-0.026-4e-3 -0.052-6e-3 -0.078-0.01 4e-3 4.84 0.013 11.06 1e-3 11.57 0.168 5.294-3.175 10.765-8.865 11.181-3.552 0.28-7.607-0.98-9.812-3.911-1.518 2.11-3.801 3.606-6.725 3.923-0.918 0.054-1.853-0.023-2.773-0.21-1.827-0.352-3.589-1.178-5.028-2.342-0.017 0.826-0.018 1.653 4e-3 2.48h-5.9v-28.36h6.02l0.019 7.092v7.089c-2e-3 0.395 0 2.817 0 3.003 0 0.623 0.072 1.083 0.142 1.474 0.125 0.701 0.335 1.368 0.68 1.939 0.158 0.261 0.341 0.503 0.561 0.717 0.013 0.013 0.215 0.195 0.31 0.267 1.201 0.878 2.831 1.152 4.306 1.033 0.677-0.057 1.323-0.206 1.87-0.449 0.763-0.361 1.285-0.813 1.666-1.383 0.124-0.186 0.228-0.389 0.325-0.601 0.201-0.439 0.356-0.932 0.486-1.497 0.026-0.158 0.048-0.376 0.067-0.643 7e-3 -0.089 0.013-0.184 0.019-0.284 0.015-0.256 0.028-0.546 0.039-0.866 0-0.012 1e-3 -0.023 1e-3 -0.035 9e-3 -0.272 0.017-1.306 0.021-1.491 0.028-3.437 3e-3 -6.874 0-10.311-2e-3 -0.243 7e-3 -5.054 7e-3 -5.054h3.292 1.083 0.907 0.738v6.743c2e-3 1.162 3e-3 2.37 4e-3 3.537 0 0.249 3e-3 3.577 2e-3 4.657v0.514s-3e-3 1.44-3e-3 1.479c0 1.332 0.278 3 1.026 3.949 1.018 1.317 2.532 1.68 4.261 1.732 1.692 0.062 3.313-0.421 4.201-1.754 0.638-0.879 1.018-2.368 1.028-3.618l3e-3 -1.916v-15.323h6.018v1e-3h6.102v6.02c-1.736 0.025-3.89 0.071-6.025-0.342" clip-path="url(#clipPath11)"/>
   <path d="m91.92 336.55c-6.032-0.082-11.471-2.864-13.363-8.903-1.414-4.444-0.97-9.13 1.526-13.106 0.231-0.351 0.492-0.677 0.767-0.992-2.048 0.36-4.113 0.321-6.185 0.298v-6.021h15.268v5.823c-4.313 0.576-5.984 3.504-6.03 8.678-0.154 5.711 2.488 8.798 8.017 8.925 3.551-0.042 6.71-1.668 7.595-5.259 0.596-2.232 0.561-5.217 0.029-7.453-0.696-3.105-2.867-4.517-5.637-4.892v-5.681c1.104 0.119 2.232 0.322 3.379 0.673 8.105 2.366 10.202 11.708 7.968 18.992-1.914 5.997-7.316 8.826-13.334 8.918" clip-path="url(#clipPath8)"/>
  </g>
 </g>
</svg>
