<?xml version="1.0" encoding="UTF-8" standalone="no"?>
<!-- Created with Inkscape (http://www.inkscape.org/) -->

<svg
   width="30.000032mm"
   height="27.429743mm"
   viewBox="0 0 30.000032 27.429743"
   version="1.1"
   id="svg1"
   xmlns="http://www.w3.org/2000/svg"
   xmlns:svg="http://www.w3.org/2000/svg">
  <defs
     id="defs1" />
  <g
     id="layer1"
     transform="translate(-87.841667,-132.82061)">
    <path
       d="m 104.30904,132.86556 v 0 c -5.740769,0.0779 -10.917199,2.72564 -12.718507,8.47421 -1.345568,4.23018 -0.923077,8.69037 1.452129,12.47437 0.219686,0.33381 0.468845,0.64445 0.730349,0.94424 -1.949695,-0.34313 -3.914256,-0.30559 -5.886626,-0.28342 v 5.73068 h 14.531645 v -0.20482 -5.24899 -0.0887 c -4.104964,-0.54794 -5.69591,-3.33582 -5.738991,-8.25982 -0.147378,-5.43541 2.367907,-8.37394 7.630001,-8.49512 3.3799,0.04 6.3867,1.58717 7.22866,5.00587 0.56684,2.12404 0.53434,4.96532 0.0275,7.09388 -0.66182,2.95541 -2.72842,4.29896 -5.36513,4.65594 v 5.40771 c 1.0508,-0.11362 2.12454,-0.30659 3.21666,-0.64116 7.71338,-2.25201 9.70918,-11.14317 7.58313,-18.07682 -1.82122,-5.70801 -6.96262,-8.4004 -12.69079,-8.48807 z"
       style="fill:none;stroke:none;stroke-width:0.0894358;stroke-linecap:butt;stroke-linejoin:miter;stroke-miterlimit:10;stroke-dasharray:none;stroke-opacity:1"
       id="path26322-3"
       clip-path="none" />
  </g>
</svg>
